Patient4_TMGait_0pt3_02_left_01_EMG.mot
version=1
nRows=30
nColumns=33
inDegrees=no
endheader
time	1LAddLong	2LGlutMax	3LGlutMed	4LIliopsoas	5LSemiMemb	6LBicFemLong	7LRecFem	8LVastMed	9LVastLat	10LGasMed	11LTibAnt	12lTibPost	13LPeroneusLong	14LSol	15LExtDigLong	16LFlexDigLong	17RAddLong	18RGlutMax	19RGlutMed	20RIliopsoas	21RSemiMemb	22RBicFemLong	23RRecFem	24RVastMed	25RVastLat	26RGasMed	27RTibAnt	28RTibPost	29RPeroneusLong	30RSol	31RExtDigLong	32RFlexDigLong
1.19	0.009308	0.35721	-0.002441	-0.025024	0.000305	-0.033112	-0.094757	0.005798	0.015564	-0.018463	-0.061035	0.012817	0.059509	-0.01709	-0.077667	-0.007477	0.039368	-0.54733	-0.014954	0.033722	0.13123	-0.003052	-0.4245	-0.20218	0.017548	0.00351	-0.013275	0.035248	0.12192	-0.23789	-0.00061	-0.010986
1.191	0.009766	0.31265	-0.001221	-0.007782	0.009918	-0.034637	-0.025635	0.002441	0.011444	0.012665	0.080872	0.00412	-0.017548	-0.069427	0.066376	0.013123	0.032654	-0.45654	-0.053253	0.032196	0.066986	0.011749	-0.30685	-0.14175	0.076141	0.016937	-0.002594	0.017242	0.023193	0.34805	0.003204	-0.010681
1.192	0.000153	0.29327	-0.00061	0.007629	0.000305	-0.033264	-0.018158	0.002899	0.008545	0.032806	0.028381	0.016785	-0.083313	-0.10193	0.070801	-0.001373	0.006561	-0.41977	-0.098267	0.084686	-0.08255	0.028381	-0.056	-0.10208	0.073547	0.010681	0.00351	0.007477	0.006104	0.69	0.001373	-0.002136
1.193	0.003967	0.26077	-0.012054	0.024109	0.003052	-0.041656	-0.055542	0.001984	0.000305	0.033875	-0.068817	0.00412	-0.050507	-0.059509	-0.067749	0.003967	0.018768	-0.3035	0.31555	0.10895	-0.2063	-0.016479	-0.030823	-0.11368	0.007324	0.012512	0.009613	-0.015106	-0.058746	0.54733	0.00061	-0.00946
1.194	0.005951	0.24902	0.003815	0.066681	-0.002136	-0.033569	-0.054016	0.005035	0.007935	0.00824	0.055389	0.009766	0.04776	-0.019073	0.033569	0.019836	0.05249	-0.26962	0.01297	0.072021	-0.023193	-0.098267	-0.05661	-0.13229	0.026855	0.00885	0.03479	-0.12161	-0.15076	0.11871	-0.001984	-0.007477
1.195	0.004883	0.23483	0.031281	0.072479	0.004425	-0.023956	-0.054779	0.006866	0.000916	-0.010223	0.094757	0.023651	0.058289	-0.015259	0.12054	0.031281	0.018768	-0.17487	0.050659	0.018463	0.042114	-0.071716	-0.03006	-0.15564	-0.006104	-0.000458	0.030975	-0.24597	-0.031891	0.20889	-0.002747	-0.010223
1.196	0.002747	0.24826	-0.00946	0.029297	0.000305	-0.028839	-0.092468	0.012207	-0.003052	-0.004272	-0.082703	0.018768	0.049286	-0.015411	0.30395	0.038147	-0.006866	-0.078888	0.062256	-0.002136	0.041199	-0.026093	-0.01297	-0.20935	-0.015564	-0.009003	0.032349	0.1236	0.025635	0.28732	0.002899	-0.012054
1.197	0.005646	0.20767	-0.075836	-0.012817	-0.002594	-0.054016	-0.087433	0.009308	-0.004883	0.00351	-0.025787	0.012207	-0.014496	0.023956	0.20004	0.020294	-0.042725	-0.016022	0.19836	-0.039215	-0.13718	-0.008698	0.06073	-0.16754	-0.036316	-0.006409	0.066071	0.066986	-0.054321	0.15533	-0.000458	-0.000916
1.198	0.001984	0.23178	-0.043945	-0.013733	-0.00061	-0.040741	-0.10223	0.008087	-0.002594	0.004272	0.094147	-0.003052	-0.027313	0.022888	0.17975	0.041504	-0.049286	0.072479	0.40207	-0.05188	0.001068	-0.039673	0.015869	-0.38055	0.005341	0.00351	0.026398	-0.026093	-0.21606	-0.23941	0.000153	-0.01236
1.199	-0.003204	0.23117	-0.084839	-0.025024	-0.003052	-0.032654	-0.12848	0.010986	0.005035	0.017395	0.070648	-0.001984	-0.016174	0.045776	-0.068359	0.040436	-0.056915	0.1001	0.30075	-0.02533	0.073242	-0.047913	0.042877	-0.15869	0.032349	0.014191	-0.026855	-0.16113	-0.056152	-0.55267	0.007172	-0.0177
1.2	-0.003357	0.19287	-0.033264	-0.029297	-0.000305	-0.057373	-0.058289	0.011749	0.001831	0.020752	0.009918	0.007477	-0.011292	0.022583	0.60242	0.041809	-0.038757	0.13275	0.21927	-0.013123	-0.06073	0.043945	0.14984	-0.035858	0.13672	0.029755	-0.084381	-0.26398	0.041809	-0.66834	0.003357	-0.003052
1.201	0.011597	0.19363	0.015717	-0.037994	-0.002289	-0.06897	-0.019379	0.006866	0.004272	0.010071	-0.16373	0.004272	-0.028381	-0.010681	-0.63904	0.046387	-0.036011	0.18066	-0.22492	0.032501	-0.093079	0.12421	0.009766	0.079346	0.25207	0.018921	-0.083618	-0.043793	-0.034485	-0.84961	-0.004883	-0.00824
1.202	-0.005951	0.1831	-0.024872	-0.019989	0.001068	-0.085602	-0.022736	0.010529	0.00885	0.014191	-0.12054	0.008698	-0.07782	-0.018311	-0.089264	0.03418	-0.035553	0.14618	-0.2652	0.005798	-0.03418	0.14923	-0.15839	0.029907	0.22583	-0.049438	0.014343	0.092163	-0.22247	-1.106	-0.003662	-0.011902
1.203	-0.041504	0.19333	-0.007629	-0.016632	0.002747	-0.077057	-0.02533	0.006866	0.001221	0.002899	0.052185	-0.006714	-0.051575	0.013275	0.31082	0.040741	-0.027924	0.21927	0.018921	0.002747	-0.19073	0.12573	-0.30014	0.040894	0.21927	-0.056152	0.048218	-0.11856	-0.37201	-0.85983	-0.004425	-0.011902
1.204	-0.041351	0.19882	-0.021973	-0.006256	0.000458	-0.060425	-0.041656	0.012512	0.009766	-0.003052	0.14679	0.014801	-0.048981	0.010223	0.039673	0.028687	-0.016022	0.24658	0.10651	0.009918	-0.13519	0.020599	-0.17044	0.17319	0.12833	-0.028687	0.055389	0.13748	-0.37308	-0.63156	-0.002747	-0.003052
1.205	-0.014954	0.19333	-0.02533	0.000153	0.000763	-0.089264	-0.040741	0.014191	-0.000305	-0.015564	0.17136	0.014801	0.010376	-0.084229	0.11475	0.041809	-0.007172	0.1947	0.14694	0.029449	-0.063477	-0.082245	-0.065613	0.04837	0	-0.001678	0.015564	0.16632	-0.16724	0.018158	-0.003052	0.002747
1.206	0.0177	0.20035	-0.039825	-0.015564	0	-0.085602	-0.075684	0.008087	0.006866	-0.027008	-0.011292	0.017242	0.052338	-0.011597	-0.093842	0.049744	0.017853	0.18478	0.23209	0.018616	-0.030823	-0.054169	0.041962	-0.06424	0.076904	0.015869	-0.041046	0.068512	-0.103	0.61966	-0.001984	0.003052
1.207	0.0177	0.19791	0.007324	0.009308	0.00412	-0.070801	-0.073395	0.013123	0.013428	-0.0177	-0.16037	0.012512	0.028992	0.029907	0.15045	0.018921	0.009155	0.14053	0.36377	0.006409	-0.10574	0.012054	0.054779	-0.049133	-0.25238	0.008545	-0.000916	0.030365	-0.035248	1.4374	-0.001221	-0.003967
1.208	0.014954	0.22034	-0.000916	0.006409	0.007935	-0.057526	-0.077362	0.013123	-0.005951	0.006104	-0.090637	0.003967	-0.009918	0.037994	0.50751	0.031738	0.005646	0.1329	0.15503	-0.025177	-0.052185	0.029449	0.004425	0.4155	-0.16647	-0.011444	0.002594	0.015869	0.20309	0.98145	-0.004883	-0.016327
1.209	0.006104	0.23712	-0.031433	0.02121	0.000305	-0.042419	-0.057983	0.010529	-0.007629	0.01358	-0.001678	0.012054	-0.037994	0.10651	-0.37506	0.011139	-0.020752	0.069885	-0.084229	-0.018463	0.18402	-0.042725	-0.058441	1.0854	-0.15625	-0.027466	-0.01709	0.07431	0.27649	0.31433	-0.005035	-0.015411
1.21	0.005798	0.25055	-0.021515	-0.003662	0.004578	-0.040588	-0.080261	0.014343	0.000305	-0.001831	0.045929	0.01297	-0.048065	0.094299	-0.021362	0.032654	0.010223	0.044098	-0.38345	-0.00946	0.14282	-0.079803	0.072784	0.85968	-0.34286	-0.018921	-0.00412	0.088196	0.12512	0.073853	-0.002441	0.004578
1.211	-0.007172	0.24536	-0.01297	0.004883	-0.000916	-0.035858	-0.050964	0.00946	-0.002747	0.00473	0.027008	0.000153	-0.027313	-0.024109	-0.19516	0.018005	0.056915	0.041199	-0.29617	-0.028839	0.053101	-0.07843	0.026398	0.24506	-0.47455	-0.003052	0.004883	0.01709	-0.018463	0.10651	-0.004425	-0.006409
1.212	-0.000305	0.27893	0.007324	0.00351	-0.001831	-0.044098	-0.030518	0.02182	-0.007935	0.003815	-0.042267	-0.008545	-0.016785	-0.060272	-0.035858	0.021057	0.033112	0.11688	-0.52231	-0.036163	-0.052338	-0.069122	-0.11505	-0.19577	-0.58319	0.006561	-0.024414	0.003357	0.081787	0.48477	0.001221	-0.004883
1.213	-0.006409	0.25635	-0.008087	-0.002747	-0.003052	-0.03891	-0.037537	0.012054	-0.019531	-0.001831	-0.1088	0.007172	-0.018768	-0.13947	-0.22446	0.027313	-0.00885	0.10757	-0.1857	-0.084381	-0.2121	0.017395	-0.14648	-0.47104	-0.52078	-0.004578	-0.005341	-0.017242	0.081329	0.50262	-0.005035	-0.001678
1.214	-0.004272	0.28305	-0.002747	0.007782	-0.001526	-0.031891	-0.037994	0.013123	-0.010681	-0.001678	0.042877	0.003967	-0.03479	-0.14099	-0.20172	0.025482	0.015259	0.1947	1.0495	-0.13519	-0.071411	0.13168	-0.14282	-0.76035	-0.14816	-0.011292	-0.007782	-0.089111	0.11658	0.088348	-0.003052	-0.01358
1.215	-0.003662	0.27802	-0.000763	-0.012817	0.002441	-0.036011	-0.02121	0.018463	-0.010376	0.000458	0.21835	0.00824	-0.060425	-0.12421	-0.18265	0.030518	0.02121	0.21668	0.91187	-0.044403	0.12466	0.13504	-0.014801	-0.64148	0.31952	0.002594	-0.015869	-0.32608	0.18051	-0.24811	-0.001831	-0.013275
1.216	0.001221	0.25726	0.018768	-0.018005	-0.002747	-0.034943	-0.020142	0.021057	-0.019073	0.001526	0.2214	0.001678	-0.054169	-0.096741	0.35065	0.016632	0.041199	0.12421	0.32501	0.056305	0.093842	0.094604	0.19394	-0.26382	0.54642	0.005035	-0.01297	0.13519	0.14267	-0.29068	-0.004272	-0.004883
1.217	0.000458	0.28183	0.040283	-0.003967	-0.011292	-0.023193	-0.006866	0.014496	-0.01297	-0.00412	0.24811	-0.002899	-0.044556	-0.054169	0.62332	0.010986	0.039368	0.017395	-0.28488	0.10315	0.085449	0.11063	0.36087	0.12817	0.38101	0.012817	0.011597	0.18646	0.045929	-0.099182	-0.003052	-0.015259
1.218	0.017395	0.24887	0.045319	-0.006866	-0.000916	-0.027161	-0.00946	0.018768	-0.010071	-0.019531	0.003052	-0.004578	0.020752	0.026245	-0.17822	-0.006866	0.02243	0.086975	-0.26794	0.13229	-0.18036	0.076141	0.40665	0.35675	0.077667	0.013733	0.005798	0.047455	-0.024567	-0.072174	-0.002441	-0.007782
1.219	0.050049	0.21668	-0.026245	0.02182	-0.001526	-0.032196	-0.004425	0.013428	0.008392	-0.057831	-0.21347	-0.014496	0.11414	0.078583	-0.17624	0.007782	0.015106	0.13214	-0.25971	0.11704	-0.21286	0.16907	0.46265	0.22446	-0.24155	0.013733	-0.022583	0.027313	0.011902	0.14847	0.000153	-0.00061
